<svg id="Layer_1" data-name="Layer 1" xmlns="http://www.w3.org/2000/svg" xmlns:xlink="http://www.w3.org/1999/xlink" viewBox="0 0 317.9 317.89"><defs><linearGradient id="linear-gradient" x1="183.29" y1="218.22" x2="183.29" y2="41.24" gradientUnits="userSpaceOnUse"><stop offset="0" stop-color="#0f8cfa"/><stop offset="1" stop-color="#54b8ff"/></linearGradient><linearGradient id="linear-gradient-2" x1="158.94" y1="309.47" x2="158.96" y2="23.08" gradientUnits="userSpaceOnUse"><stop offset="0" stop-color="#0957b0"/><stop offset="1" stop-color="#2179eb"/></linearGradient></defs><path d="M256.62,57.88l-97.9,97.9L110,107c-17.93-17.93-45,9.18-27.11,27.11l62.2,62.2a19.08,19.08,0,0,0,13.35,5.59h.67a19.14,19.14,0,0,0,13.35-5.59L283.73,85C301.67,67.06,274.55,40,256.62,57.88Z" style="fill-rule:evenodd;fill:url(#linear-gradient)"/><path d="M159,60.31a27.86,27.86,0,1,1-27.86,27.85A27.85,27.85,0,0,1,159,60.31ZM159,0a158.88,158.88,0,1,0,138.9,81.62,30.48,30.48,0,0,1-7,10.54L278.26,104.8a131.11,131.11,0,0,1-25.75,145.82l-47.35-47.35c-17.93-17.93-45,9.18-27.11,27.11L221.66,274A131.21,131.21,0,0,1,96,273.83l43.6-43.6c17.94-17.94-9.19-45-27.11-27.11L65.16,250.4A131,131,0,0,1,242.29,57.88l7.17-7.16a29.33,29.33,0,0,1,17.19-8.67A158.41,158.41,0,0,0,159,0Z" style="fill-rule:evenodd;fill:url(#linear-gradient-2)"/></svg>