<svg id="Layer_1" data-name="Layer 1" xmlns="http://www.w3.org/2000/svg" xmlns:xlink="http://www.w3.org/1999/xlink" viewBox="0 0 772.41 157.51"><defs><style>.cls-1{fill:#021736;}.cls-1,.cls-2,.cls-3{fill-rule:evenodd;}.cls-2{fill:url(#linear-gradient);}.cls-3{fill:url(#linear-gradient-2);}</style><linearGradient id="linear-gradient" x1="90.82" y1="108.13" x2="90.82" y2="20.43" gradientUnits="userSpaceOnUse"><stop offset="0" stop-color="#0f8cfa"/><stop offset="1" stop-color="#54b8ff"/></linearGradient><linearGradient id="linear-gradient-2" x1="78.75" y1="153.34" x2="78.76" y2="11.44" gradientUnits="userSpaceOnUse"><stop offset="0" stop-color="#0957b0"/><stop offset="1" stop-color="#2179eb"/></linearGradient></defs><path class="cls-1" d="M229.25,98.6l4.48,11.56h17L224.32,47.44H207.93l-27.06,62.72h16.39l4.57-11.56Zm-4.66-12.09h-18.1l9.14-23.21,9,23.21Zm47.85,23.65V43.68h-15.5v66.48Zm28.76,0V43.68H285.7v66.48Z"/><path class="cls-1" d="M360.64,96l6,14.16h11.29L350.52,47.44H339.68L312,110.16h11L329,96Zm-4-9.4H333l11.82-27.87L356.61,86.6Zm46.23-24.46c-14.15,0-24,9.85-24,24.28s9.86,24.1,24,24.1c9.05,0,16-3.23,20.25-8.87l-5.73-5.73c-3.22,3.76-8.06,5.73-14.07,5.73-8.24,0-14.15-6.18-14.15-15.23s5.91-15.23,14.15-15.23a18,18,0,0,1,13.62,5.37l5.65-6.63c-4.39-5-11.11-7.79-19.72-7.79Zm48.66,0c-14.16,0-24,9.85-24,24.28s9.85,24.1,24,24.1c9.05,0,15.95-3.23,20.25-8.87L466,95.92c-3.22,3.76-8.06,5.73-14.06,5.73-8.25,0-14.16-6.18-14.16-15.23S443.7,71.19,452,71.19a18,18,0,0,1,13.61,5.37l5.65-6.63c-4.39-5-11.11-7.79-19.71-7.79Zm48.74,0c-14.16.09-24.1,9.85-24.1,24.28s9.68,24.1,24.37,24.1c8.24,0,15-3,19.71-8.06l-5.46-5.83a18.53,18.53,0,0,1-13.44,5.56,14.51,14.51,0,0,1-14.79-11.92h36c1.26-17.2-5.55-28.13-22.31-28.13Zm-13.89,20.6c1.17-7.61,6.45-12.36,14-12.36,7.79,0,12.9,4.66,13.26,12.36Zm61.2-20.69c-9.14,0-17.56,4.12-17.56,13.79-.09,17.21,25,11.74,25,21.51,0,3.58-3.41,5.11-7.8,5.11a25.93,25.93,0,0,1-16-5.92l-3.67,7.35c4.75,4.3,12.18,6.63,19.17,6.63,9.59,0,18.28-4.39,18.28-14.16.09-17.29-25.27-12.54-25.27-21.32,0-3.41,3-4.75,7-4.75a28,28,0,0,1,13.71,4.21l3.76-7.61c-4.3-3-10.66-4.84-16.66-4.84Zm42.11,0c-9.14,0-17.56,4.12-17.56,13.79-.09,17.21,25,11.74,25,21.51,0,3.58-3.41,5.11-7.8,5.11a25.93,25.93,0,0,1-15.95-5.92l-3.67,7.35c4.75,4.3,12.19,6.63,19.17,6.63,9.59,0,18.28-4.39,18.28-14.16.09-17.29-25.26-12.54-25.26-21.32,0-3.41,3-4.75,7-4.75a28,28,0,0,1,13.71,4.21l3.77-7.61c-4.31-3-10.67-4.84-16.67-4.84Zm33-19.45a6,6,0,0,0-6,6.28,6,6,0,1,0,12,0,6,6,0,0,0-6-6.28Zm5.11,67.56V62.49H617.52v47.67Zm42.65-48c-7.44,0-13.17,3-16.67,8.6V43.68h-10.3v66.48h10.3v-8.24c3.5,5.55,9.23,8.6,16.85,8.6,13.62,0,22.58-9.77,22.58-24,0-14.52-9.23-24.37-22.76-24.37Zm-2.15,39.6c-8.51,0-14.52-6.36-14.52-15.59,0-9,6-15.41,14.52-15.41s14.51,6.54,14.51,15.41c0,9.14-6,15.59-14.51,15.59Zm46.41,8.42V43.68H704.34v66.48Zm35.3-48c-14.16.09-24.1,9.85-24.1,24.28s9.68,24.1,24.37,24.1c8.24,0,15-3,19.71-8.06l-5.46-5.83A18.53,18.53,0,0,1,751,102.19a14.51,14.51,0,0,1-14.79-11.92h36c1.25-17.2-5.55-28.13-22.31-28.13Zm-13.89,20.6c1.17-7.61,6.45-12.36,14-12.36,7.79,0,12.9,4.66,13.26,12.36Z"/><path class="cls-2" d="M127.15,28.68,78.65,77.19,54.48,53c-8.89-8.88-22.32,4.55-13.43,13.43L71.87,97.27A9.39,9.39,0,0,0,78.48,100h.33a9.44,9.44,0,0,0,6.62-2.77l55.16-55.16C149.47,33.23,136,19.8,127.15,28.68Z"/><path class="cls-3" d="M78.76,29.88A13.81,13.81,0,1,1,65,43.68a13.8,13.8,0,0,1,13.8-13.8ZM78.76,0a78.73,78.73,0,1,0,68.82,40.44,15,15,0,0,1-3.44,5.22l-6.27,6.27a65,65,0,0,1-12.75,72.25l-23.46-23.46c-8.89-8.89-22.32,4.55-13.44,13.43l21.61,21.6a65,65,0,0,1-62.29-.07l21.6-21.61c8.89-8.88-4.55-22.31-13.43-13.43L32.29,124.07a64.9,64.9,0,0,1,87.76-95.39l3.55-3.55a14.56,14.56,0,0,1,8.52-4.29A78.44,78.44,0,0,0,78.76,0Z"/></svg>